<?xml version="1.0" encoding="UTF-8" standalone="no"?>
<!-- Created with Inkscape (http://www.inkscape.org/) -->

<svg
   width="48"
   height="48"
   viewBox="0 0 12.7 12.7"
   version="1.1"
   id="svg154178"
   sodipodi:docname="free_fall_favicon.svg"
   inkscape:version="1.2.2 (732a01da63, 2022-12-09)"
   xmlns:inkscape="http://www.inkscape.org/namespaces/inkscape"
   xmlns:sodipodi="http://sodipodi.sourceforge.net/DTD/sodipodi-0.dtd"
   xmlns="http://www.w3.org/2000/svg"
   xmlns:svg="http://www.w3.org/2000/svg">
  <sodipodi:namedview
     id="namedview154180"
     pagecolor="#505050"
     bordercolor="#eeeeee"
     borderopacity="1"
     inkscape:showpageshadow="0"
     inkscape:pageopacity="0"
     inkscape:pagecheckerboard="0"
     inkscape:deskcolor="#505050"
     inkscape:document-units="px"
     showgrid="true"
     inkscape:zoom="8.4791667"
     inkscape:cx="21.58231"
     inkscape:cy="20.167076"
     inkscape:window-width="1920"
     inkscape:window-height="1046"
     inkscape:window-x="-11"
     inkscape:window-y="-11"
     inkscape:window-maximized="1"
     inkscape:current-layer="layer1">
    <inkscape:grid
       type="xygrid"
       id="grid154184" />
  </sodipodi:namedview>
  <defs
     id="defs154175" />
  <g
     inkscape:label="Layer 1"
     inkscape:groupmode="layer"
     id="layer1">
    <rect
       style="fill:#0000ff;fill-opacity:1;fill-rule:evenodd;stroke:#000000;stroke-width:0.459779;stroke-dasharray:none;stroke-opacity:1"
       id="rect122797"
       width="9.6262913"
       height="9.5610638"
       x="1.5368544"
       y="1.5694681" />
    <path
       id="rect122794"
       style="fill:#1a73e8;fill-opacity:1;fill-rule:evenodd;stroke:#000000;stroke-width:0.516976;stroke-dasharray:none;stroke-opacity:1"
       d="M 10.87664,0.17860446 1.64796,0.21577746 1.106952,1.6196698 A 1.6399579,2.4276773 0 0 0 0.258488,3.7445055 1.6399579,2.4276773 0 0 0 1.898502,6.1720781 1.6399579,2.4276773 0 0 0 3.416524,4.6607519 1.535438,2.4276773 0 0 0 4.837546,6.1720781 1.535438,2.4276773 0 0 0 6.25597,4.6708423 1.6399579,2.4276773 0 0 0 7.770815,6.1720781 1.6399579,2.4276773 0 0 0 9.28628,4.6696489 1.6399579,2.4276773 0 0 0 10.801498,6.1720781 1.6399579,2.4276773 0 0 0 12.441512,3.7445055 1.6399579,2.4276773 0 0 0 11.462106,1.522615 Z" />
    <rect
       style="fill:#1a73e8;fill-opacity:1;fill-rule:evenodd;stroke:#000000;stroke-width:0.403099;stroke-dasharray:none;stroke-opacity:1"
       id="rect122994"
       width="2.9124649"
       height="4.1176624"
       x="4.8937674"
       y="6.9370022"
       ry="0" />
    <text
       xml:space="preserve"
       style="font-style:normal;font-variant:normal;font-weight:bold;font-stretch:normal;font-size:2.57521px;font-family:Candara;-inkscape-font-specification:'Candara, Bold';font-variant-ligatures:normal;font-variant-caps:normal;font-variant-numeric:normal;font-variant-east-asian:normal;fill:#000000;fill-opacity:1;stroke:#000000;stroke-width:0;stroke-linecap:butt;stroke-linejoin:round;stroke-dasharray:none;stroke-opacity:1;paint-order:stroke fill markers"
       x="5.9524632"
       y="8.9395447"
       id="text122855"
       transform="scale(0.9522285,1.0501681)"><tspan
         sodipodi:role="line"
         id="tspan122853"
         style="font-style:normal;font-variant:normal;font-weight:bold;font-stretch:normal;font-size:2.57521px;font-family:Candara;-inkscape-font-specification:'Candara, Bold';font-variant-ligatures:normal;font-variant-caps:normal;font-variant-numeric:normal;font-variant-east-asian:normal;fill:#000000;fill-opacity:1;stroke-width:0"
         x="5.9524632"
         y="8.9395447">g</tspan></text>
  </g>
</svg>
