<?xml version="1.0" encoding="UTF-8" standalone="no"?>
<!-- Created with Inkscape (http://www.inkscape.org/) -->

<svg
   width="293.88486"
   height="73.748352"
   viewBox="0 0 77.75704 19.512585"
   version="1.1"
   id="svg60675"
   xmlns="http://www.w3.org/2000/svg"
   xmlnsSvg="http://www.w3.org/2000/svg">
  <defs
     id="defs60672" />
  <g
     id="layer1"
     transform="translate(636.10058,114.54471)">
    <path
       id="rect67091"
       style="fill:#080849;fill-opacity:1;fill-rule:evenodd;stroke-width:0.670179"
       d="m -1020.8518,-283.6013 44.06891,26.45833 v -0.0165 h -44.06891 z" />
    <rect
       style="fill:#1a73e8;fill-opacity:1;stroke:#000000;stroke-width:0;stroke-linecap:round;stroke-linejoin:bevel;stroke-dasharray:none;stroke-dashoffset:0;stroke-opacity:0.956863"
       id="rect168595"
       width="8.3079014"
       height="10.449424"
       x="106.89983"
       y="949.19379"
       transform="rotate(90)"
       ry="1.7097632" />
    <ellipse
       style="fill:#1a73e8;fill-opacity:1;stroke-width:0.104594"
       id="path412"
       cx="-950.33813"
       cy="115.63243"
       rx="1.619845"
       ry="1.4191234" />
    <rect
       style="fill:#1a73e8;fill-opacity:1;stroke-width:0.0562959"
       id="rect472"
       width="2.6823306"
       height="12.015553"
       x="-955.52191"
       y="-131.41634"
       transform="matrix(0.97022349,-0.24221142,0.27081876,0.96263035,0,0)" />
    <rect
       style="fill:#1a73e8;fill-opacity:1;stroke-width:0.0653045"
       id="rect474"
       width="2.6820126"
       height="9.769743"
       x="-884.33923"
       y="335.42688"
       transform="matrix(0.96965901,0.24446146,-0.27389264,0.96176027,0,0)" />
    <rect
       style="fill:#1a73e8;fill-opacity:1;stroke:#000000;stroke-width:0;stroke-linecap:round;stroke-linejoin:bevel;stroke-dasharray:none;stroke-dashoffset:0;stroke-opacity:0.956863"
       id="rect143587"
       width="2.5332315"
       height="14.925826"
       x="105.23214"
       y="945.99005"
       transform="rotate(90)"
       ry="0.62939435" />
    <rect
       style="fill:#1a73e8;fill-opacity:1;stroke:#000000;stroke-width:0;stroke-linecap:round;stroke-linejoin:bevel;stroke-dasharray:none;stroke-dashoffset:0;stroke-opacity:0.956863"
       id="rect143589"
       width="2.5332315"
       height="10.03615"
       x="113.98497"
       y="949.4574"
       transform="rotate(90)" />
    <rect
       style="fill:#1a73e8;fill-opacity:1;stroke:#000000;stroke-width:0;stroke-linecap:round;stroke-linejoin:bevel;stroke-dasharray:none;stroke-dashoffset:0;stroke-opacity:0.956863"
       id="rect143583"
       width="2.5332315"
       height="3.6009839"
       x="103.5691"
       y="960.01886"
       transform="rotate(90)"
       ry="0.37502366" />
    <path
       style="color:#000000;fill:#080849;stroke-width:0;-inkscape-stroke:none"
       d="m -930.001,51.978148 h 29.58788 V 78.436474 H -930.001 Z"
       id="path62978" />
    <ellipse
       style="fill:#1a73e8;fill-opacity:1;stroke-width:0.104594"
       id="circle63169"
       cx="-958.51129"
       cy="115.63243"
       rx="1.619845"
       ry="1.4191234" />
    <text
       xmlSpace="preserve"
       style="font-weight:bold;font-size:49.3117px;font-family:Tahoma;-inkscape-font-specification:'Tahoma, Bold';fill:#000000;fill-opacity:0;stroke:#1a73e8;stroke-width:0"
       x="-584.93317"
       y="-119.53113"
       id="text63918"><tspan
         id="tspan63916"
         style="stroke-width:0"
         x="-584.93317"
         y="-119.53113"></tspan></text>
    <circle
       style="fill:#080849;fill-opacity:1;stroke:#1a73e8;stroke-width:0"
       id="circle64468"
       cx="-1407.506"
       cy="4.0510793"
       r="1.2485952" />
    <rect
       style="fill:#080849;fill-opacity:1;stroke:#1a73e8;stroke-width:0"
       id="rect63040"
       width="2.9699421"
       height="2.9806364"
       x="-1006.0325"
       y="-848.89966"
       ry="0"
       transform="matrix(0.8830437,-0.46929076,0.53134981,0.84715251,0,0)" />
    <circle
       style="fill:#080849;fill-opacity:1;stroke:#1a73e8;stroke-width:0"
       id="circle64486"
       cx="-1372.735"
       cy="-232.09074"
       r="1.6202408" />
    <rect
       style="fill:#080849;fill-opacity:1;fill-rule:evenodd;stroke-width:0.228876"
       id="rect66538"
       width="3.96875"
       height="7.2760415"
       x="-1376.0286"
       y="-249.74557"
       ry="0" />
    <rect
       style="fill:#0000ff;fill-rule:evenodd;stroke-width:0.284208"
       id="rect66799"
       width="3.0917604"
       height="21.404495"
       x="237.02995"
       y="-1314.3806"
       ry="0"
       transform="rotate(-90)" />
    <rect
       style="fill:#0000ff;fill-rule:evenodd;stroke-width:0.243905"
       id="rect66801"
       width="3.0761209"
       height="15.844501"
       x="-1288.1632"
       y="-380.92743"
       ry="0"
       transform="matrix(0.99506336,-0.09924166,0.03788004,0.99928229,0,0)" />
    <rect
       style="fill:#0000ff;fill-rule:evenodd;stroke-width:0.264583"
       id="rect66803"
       width="3.0917604"
       height="18.550562"
       x="-1019.964"
       y="-880.98151"
       ry="0"
       rx="0"
       transform="rotate(-30)" />
    <rect
       style="fill:#080849;fill-opacity:1;fill-rule:evenodd;stroke-width:0.144448"
       id="rect67534"
       width="2.2007816"
       height="11.377084"
       x="-968.56268"
       y="54.262501"
       ry="0" />
    <rect
       style="fill:#000000;fill-opacity:1;stroke:#1a73e8;stroke-width:0"
       id="rect62982"
       width="5.2916656"
       height="3.4638264"
       x="-7.1183696"
       y="1396.6434"
       transform="rotate(90)"
       ry="0.63632703" />
    <circle
       style="fill:#1a73e8;fill-opacity:1;stroke:#1a73e8;stroke-width:0"
       id="circle64488"
       cx="-1488.3351"
       cy="13.663844"
       r="2.215553" />
    <text
       xmlSpace="preserve"
       style="font-style:normal;font-variant:normal;font-weight:bold;font-stretch:normal;font-size:19.6074px;font-family:Candara;-inkscape-font-specification:'Candara, Bold';font-variant-ligatures:normal;font-variant-caps:normal;font-variant-numeric:normal;font-variant-east-asian:normal;fill:#080849;fill-opacity:1;stroke:#1a73e8;stroke-width:0"
       x="-1132.8446"
       y="-219.32666"
       id="text64406"
       transform="scale(0.93312717,1.0716653)"><tspan
         id="tspan64404"
         style="font-style:normal;font-variant:normal;font-weight:bold;font-stretch:normal;font-size:19.6074px;font-family:Candara;-inkscape-font-specification:'Candara, Bold';font-variant-ligatures:normal;font-variant-caps:normal;font-variant-numeric:normal;font-variant-east-asian:normal;fill:#080849;fill-opacity:1;stroke-width:0"
         x="-1132.8446"
         y="-219.32666">g</tspan></text>
    <path
       style="fill:#080849;fill-opacity:1;stroke:#1a73e8;stroke-width:0"
       id="path67536"
       d="m -178.27016,-332.29198 -37.95968,0 18.97984,-32.87405 z"
       transform="matrix(-0.49367353,0,0,-0.41409653,-1149.3312,-371.32312)" />
    <path
       id="path68419"
       style="fill:#080849;stroke:#1a73e8;stroke-width:0"
       d="m -974.64457,62.963878 7.18602,1.89191 7.2326,-1.93395 -7.20931,12.55681 z" />
    <path
       id="rect89497"
       style="fill:#000000;fill-opacity:0;stroke:#000000;stroke-width:1;stroke-linejoin:round;stroke-dasharray:none;stroke-opacity:1"
       d="m -1457.089,56.631132 c -1.4001,0 -2.5269,1.126899 -2.5269,2.526978 v 7.046598 c 0,0.135063 0.011,0.267143 0.031,0.396359 -0.02,0.214832 -0.031,0.43286 -0.031,0.65319 0,3.759472 3.0266,6.785632 6.7861,6.785632 h 11.6866 c 3.7595,0 6.7862,-3.02616 6.7862,-6.785632 0,-3.759473 -3.0267,-6.786149 -6.7862,-6.786149 h -10.4536 V 59.15811 c 0,-1.400079 -1.1269,-2.526978 -2.527,-2.526978 z" />
    <path
       id="rect63038"
       style="fill:#1a73e8;fill-opacity:1;stroke:#000000;stroke-width:2;stroke-linejoin:round;stroke-dasharray:none;stroke-opacity:1"
       d="m -970.96108,-229.32815 c -1.30457,0 -2.35458,1.07221 -2.35458,2.40434 v 6.70462 c 0,0.1285 0.0103,0.25418 0.0289,0.37713 -0.0189,0.2044 -0.0289,0.41185 -0.0289,0.62149 0,3.57701 2.82019,6.4563 6.32318,6.4563 h 10.8898 c 3.50298,0 6.32269,-2.87929 6.32269,-6.4563 0,-3.57703 -2.81971,-6.45681 -6.32269,-6.45681 h -9.74093 v -1.24643 c 0,-1.33213 -1.05001,-2.40434 -2.35457,-2.40434 z" />
    <ellipse
       style="fill:#1a73e8;fill-opacity:1;stroke:#000000;stroke-width:2;stroke-linejoin:round;stroke-dasharray:none;stroke-opacity:1"
       id="circle68477"
       cx="-970.22974"
       cy="-209.89964"
       rx="3.0816565"
       ry="3.1467817" />
    <ellipse
       style="fill:#1a73e8;fill-opacity:1;stroke:#000000;stroke-width:2;stroke-linejoin:round;stroke-dasharray:none;stroke-opacity:1"
       id="circle64466"
       cx="-952.87115"
       cy="-209.89964"
       rx="3.0816565"
       ry="3.1467817" />
    <path
       id="path118796"
       style="opacity:1;fill:#1a73e8;stroke:#000000;stroke-width:0;stroke-linejoin:round;stroke-dasharray:none;paint-order:stroke fill markers"
       d="m -1435.9198,28.92142 c 0,7.621226 -6.3684,13.799449 -14.2241,13.799447 -7.8557,-3e-6 -14.224,-6.178225 -14.224,-13.799447 0,-2.999782 0.9208,-7.338328 2.5167,-11.496989 0.4368,-1.13828 1.4329,-1.06214 1.9658,-2.14233 0.4431,-0.89824 0.409,-2.96658 0.9122,-3.78521 1.4654,-2.3839697 3.1732,-4.3544197 5.0519,-5.4690797 1.0669,-0.63303 2.1888,-0.99005 3.3528,-0.99005 2.6961,0 5.2671,1.91556 7.4812,4.73992 0.8152,1.0398697 -0.1164,2.0967797 0.5905,3.3327897 0.7515,1.31399 3.1336,2.81657 3.7358,4.23508 1.7754,4.182608 2.8412,8.557115 2.8412,11.575869 z" />
    <ellipse
       style="opacity:1;fill:#1a73e8;fill-opacity:1;stroke:#000000;stroke-width:0;stroke-linecap:butt;stroke-linejoin:round;stroke-dasharray:none;stroke-opacity:1;paint-order:stroke fill markers"
       id="path118799"
       cx="-1458.6644"
       cy="10.293489"
       rx="0.60047293"
       ry="1.6178663" />
    <ellipse
       style="opacity:1;fill:#1a73e8;fill-opacity:1;stroke:#000000;stroke-width:0;stroke-linecap:butt;stroke-linejoin:round;stroke-dasharray:none;stroke-opacity:1;paint-order:stroke fill markers"
       id="ellipse118801"
       cx="-1439.8246"
       cy="15.622684"
       rx="0.60047293"
       ry="1.6178663" />
    <ellipse
       style="opacity:1;fill:#1a73e8;fill-opacity:1;stroke:#000000;stroke-width:0;stroke-linecap:butt;stroke-linejoin:round;stroke-dasharray:none;stroke-opacity:1;paint-order:stroke fill markers"
       id="ellipse118803"
       cx="-1446.1296"
       cy="7.1410069"
       rx="0.60047293"
       ry="1.6178663" />
    <ellipse
       style="opacity:1;fill:#1a73e8;fill-opacity:1;stroke:#000000;stroke-width:0;stroke-linecap:butt;stroke-linejoin:round;stroke-dasharray:none;stroke-opacity:1;paint-order:stroke fill markers"
       id="ellipse118805"
       cx="-1456.882"
       cy="4.0586324"
       rx="0.60047293"
       ry="1.6178663" />
    <ellipse
       style="opacity:1;fill:#1a73e8;fill-opacity:1;stroke:#000000;stroke-width:0;stroke-linecap:butt;stroke-linejoin:round;stroke-dasharray:none;stroke-opacity:1;paint-order:stroke fill markers"
       id="ellipse118807"
       cx="-1406.4551"
       cy="-3.0999596"
       rx="0.60047293"
       ry="1.6178663" />
    <path
       id="ellipse118809"
       style="opacity:1;fill:#1a73e8;stroke:#000000;stroke-width:0;stroke-linejoin:round;paint-order:stroke fill markers"
       d="m -1446.0749,-2.2499787 c 0,0.89352 -0.3358,1.61786996 -0.75,1.61786996 -0.4142,0 -0.75,-0.72434996 -0.75,-1.61786996 0,-0.25566 -0.065,-0.72305 -0.016,-0.938 0.016,-0.0685 0.2727,0.29519 0.2924,0.23257 0.015,-0.0465 -0.027,-0.24825 -0.01,-0.29116 0.028,-0.0706 -0.031,-0.18298 0,-0.24247 0.028,-0.0511 0.1143,0.3667 0.1458,0.32492 0.037,-0.0495 0.063,-0.25139 0.1,-0.39518 0.028,-0.10859 0.1347,0.0912 0.1677,0.0738 0.057,-0.0302 0,-0.50903 0.059,-0.50903 0.062,0 0.065,0.42154 0.1228,0.45208 0.03,0.0157 0.1248,-0.24344 0.1529,-0.22034 0.032,0.026 -0.013,0.6777 0.017,0.71236 0.044,0.0516 0.1601,-0.63073 0.1981,-0.56194 0.038,0.0684 -0.019,0.50478 0.012,0.58777 0.036,0.0978 0.1728,-0.32509 0.198,-0.21052 0.046,0.21012 0.059,0.73707 0.059,0.98515 z" />
    <ellipse
       style="opacity:1;fill:#1a73e8;fill-opacity:1;stroke:#000000;stroke-width:0;stroke-linecap:butt;stroke-linejoin:round;stroke-dasharray:none;stroke-opacity:1;paint-order:stroke fill markers"
       id="ellipse118811"
       cx="-1451.928"
       cy="1.8068626"
       rx="0.60047293"
       ry="1.6178663" />
    <ellipse
       style="opacity:1;fill:#1a73e8;fill-opacity:1;stroke:#000000;stroke-width:0;stroke-linecap:butt;stroke-linejoin:round;stroke-dasharray:none;stroke-opacity:1;paint-order:stroke fill markers"
       id="ellipse118813"
       cx="-1452.3784"
       cy="-10.052489"
       rx="0.60047293"
       ry="1.6178663" />
    <ellipse
       style="opacity:1;fill:#1a73e8;fill-opacity:1;stroke:#000000;stroke-width:0;stroke-linecap:butt;stroke-linejoin:round;stroke-dasharray:none;stroke-opacity:1;paint-order:stroke fill markers"
       id="ellipse118815"
       cx="-1469.802"
       cy="-2.6496041"
       rx="0.60047293"
       ry="1.6178663" />
    <path
       id="path118818"
       style="opacity:1;fill:#1a73e8;stroke:#000000;stroke-width:0;stroke-linejoin:round;paint-order:stroke fill markers"
       d="m -1454.4607,-3.0991787 c 0,0.89352 -0.3358,1.61787 -0.75,1.61787 -0.4143,0 -0.75,-0.72435 -0.75,-1.61787 0,-0.25566 -0.065,-0.72305 -0.016,-0.938 0.016,-0.0685 0.2727,0.29519 0.2924,0.23257 0.015,-0.0465 -0.027,-0.24825 -0.01,-0.29116 0.028,-0.0706 -0.031,-0.18298 0,-0.24247 0.028,-0.0511 0.1143,0.3667 0.1458,0.32492 0.037,-0.0495 0.063,-0.25139 0.1,-0.39518 0.028,-0.10859 0.1346,0.0912 0.1676,0.0738 0.057,-0.0302 0,-0.50903 0.059,-0.50903 0.062,0 0.065,0.42154 0.1229,0.45208 0.03,0.0157 0.1248,-0.24344 0.1529,-0.22034 0.032,0.026 -0.013,0.6777 0.017,0.71236 0.044,0.0516 0.1601,-0.63073 0.1981,-0.56194 0.038,0.0684 -0.019,0.50478 0.012,0.58777 0.036,0.0978 0.1728,-0.32509 0.198,-0.21052 0.046,0.21012 0.059,0.73707 0.059,0.98515 z" />
    <path
       id="path118820"
       style="opacity:1;fill:#1a73e8;stroke:#000000;stroke-width:0;stroke-linejoin:round;paint-order:stroke fill markers"
       d="m -1449.8963,-5.0098687 c 0,0.89352 -0.3358,1.61787 -0.75,1.61787 -0.4142,0 -0.75,-0.72435 -0.75,-1.61787 0,-0.25566 -0.065,-0.72305 -0.016,-0.938 0.016,-0.0685 0.2727,0.29519 0.2924,0.23257 0.015,-0.0465 -0.027,-0.24825 -0.01,-0.29116 0.028,-0.0706 -0.031,-0.18298 0,-0.24247 0.028,-0.0511 0.1143,0.3667 0.1458,0.32492 0.037,-0.0495 0.063,-0.25139 0.1,-0.39518 0.028,-0.10859 0.1347,0.0912 0.1677,0.0738 0.057,-0.0302 0,-0.50903 0.059,-0.50903 0.062,0 0.065,0.42154 0.1228,0.45208 0.03,0.0157 0.1248,-0.24344 0.1529,-0.22034 0.032,0.026 -0.013,0.6777 0.017,0.71236 0.044,0.0516 0.1601,-0.63073 0.1981,-0.56194 0.038,0.0684 -0.019,0.50478 0.012,0.58777 0.036,0.0978 0.1728,-0.32509 0.1981,-0.21052 0.046,0.21012 0.059,0.73707 0.059,0.98515 z" />
    <rect
       style="fill:#1a73e8;fill-opacity:1;fill-rule:evenodd;stroke-width:0.234899"
       id="rect121878"
       width="21.850401"
       height="12.939916"
       x="-1343.4329"
       y="16.333628" />
    <path
       style="fill:#1a73e8;fill-opacity:1;stroke:#1a73e8;stroke-width:0;stroke-dasharray:none;stroke-opacity:1"
       id="path23329"
       d="m -1658.063,-147.5975 -369.1274,0 184.5637,-319.67368 z"
       transform="matrix(0.08243806,0,0,0.05258873,-1180.4201,27.899202)" />
    <rect
       style="fill:#000000;fill-opacity:1;fill-rule:evenodd;stroke-width:0.228199"
       id="rect121880"
       width="5.3128924"
       height="6.7786436"
       x="-1335.3158"
       y="20.839334" />
    <rect
       style="fill:#0000ff;fill-rule:evenodd;stroke-width:0.264583"
       id="rect122132"
       width="5.7177658"
       height="40.024361"
       x="-1409.0149"
       y="-277.06714" />
    <rect
       style="fill:#0000ff;fill-rule:evenodd;stroke-width:0.264583"
       id="rect122134"
       width="5.7177658"
       height="40.024361"
       x="-1408.1741"
       y="-277.90799" />
    <rect
       style="fill:#0000ff;fill-rule:evenodd;stroke-width:0.264583"
       id="rect122138"
       width="5.7177658"
       height="40.024361"
       x="-1405.7278"
       y="-275.55362" />
    <rect
       style="fill:#0000ff;fill-rule:evenodd;stroke-width:0.264583"
       id="rect122286"
       width="65.754311"
       height="6.8949533"
       x="-1165.0939"
       y="-271.05304" />
    <path
       id="rect122288"
       style="fill:#0000ff;fill-rule:evenodd;stroke-width:0;stroke-dasharray:none"
       d="m -1175.1507,-291.83029 h 65.5861 l 6.7268,12.78089 h -79.376 z" />
    <rect
       style="fill:#0000ff;fill-rule:evenodd;stroke-width:0.275167"
       id="rect122792"
       width="30.430258"
       height="5.6268849"
       x="-1314.1879"
       y="-215.82637" />
    <path
       id="rect122799"
       style="fill:#1a73e8;fill-opacity:1;fill-rule:evenodd;stroke-width:0.413396"
       d="m -1195.8887,-232.19546 c -2.2073,0 -3.9842,1.95769 -3.9842,4.38955 v 5.38141 c 0,0.008 -10e-5,0.016 0,0.024 h 8.346 c 0,-0.008 0,-0.016 0,-0.024 v -5.38141 c 0,-2.43186 -1.7769,-4.38955 -3.9842,-4.38955 z" />
    <ellipse
       style="fill:#1a73e8;fill-opacity:1;stroke:#000000;stroke-width:0;stroke-linecap:butt;stroke-linejoin:round;stroke-dasharray:none;stroke-opacity:1;paint-order:stroke fill markers"
       id="circle122786"
       cx="-1080.8441"
       cy="-213.48029"
       rx="3.9571807"
       ry="4.3753123" />
    <ellipse
       style="fill:#1a73e8;fill-opacity:1;stroke:#000000;stroke-width:0;stroke-linecap:butt;stroke-linejoin:round;stroke-dasharray:none;stroke-opacity:1;paint-order:stroke fill markers"
       id="circle122788"
       cx="-1088.4962"
       cy="-237.4801"
       rx="3.9571807"
       ry="4.3753123" />
    <rect
       style="fill:#0000ff;fill-opacity:1;fill-rule:evenodd;stroke:#000000;stroke-width:1.02371;stroke-dasharray:none;stroke-opacity:1"
       id="rect122797"
       width="23.341211"
       height="19.547745"
       x="-1178.5598"
       y="-12.501151" />
    <path
       id="rect122794"
       style="fill:#1a73e8;fill-opacity:1;fill-rule:evenodd;stroke:#000000;stroke-width:1.15106;stroke-dasharray:none;stroke-opacity:1"
       d="m -1155.7224,-17.916578 -22.3771,0.076 -1.3118,2.87028 a 3.976464,4.9634245 0 0 0 -2.0573,4.34426 3.976464,4.9634245 0 0 0 3.9766,4.9632103 3.976464,4.9634245 0 0 0 3.6808,-3.08993 3.723031,4.9634245 0 0 0 3.4456,3.08993 3.723031,4.9634245 0 0 0 3.4393,-3.0693 3.976464,4.9634245 0 0 0 3.6731,3.0693 3.976464,4.9634245 0 0 0 3.6746,-3.07174 3.976464,4.9634245 0 0 0 3.674,3.07174 3.976464,4.9634245 0 0 0 3.9766,-4.9632103 3.976464,4.9634245 0 0 0 -2.3748,-4.54269 z" />
    <rect
       style="fill:#1a73e8;fill-opacity:1;fill-rule:evenodd;stroke:#000000;stroke-width:0.89751;stroke-dasharray:none;stroke-opacity:1"
       id="rect122994"
       width="7.0619569"
       height="8.4186258"
       x="-1170.2581"
       y="-3.0740044"
       ry="0" />
    <text
       xmlSpace="preserve"
       style="font-style:normal;font-variant:normal;font-weight:bold;font-stretch:normal;font-size:5.73377px;font-family:Candara;-inkscape-font-specification:'Candara, Bold';font-variant-ligatures:normal;font-variant-caps:normal;font-variant-numeric:normal;font-variant-east-asian:normal;fill:#000000;fill-opacity:1;stroke:#000000;stroke-width:0;stroke-linecap:butt;stroke-linejoin:round;stroke-dasharray:none;stroke-opacity:1;paint-order:stroke fill markers"
       x="-1126.757"
       y="1.9748408"
       id="text122855"
       transform="scale(1.0369985,0.96432155)"><tspan
         id="tspan122853"
         style="font-style:normal;font-variant:normal;font-weight:bold;font-stretch:normal;font-size:5.73377px;font-family:Candara;-inkscape-font-specification:'Candara, Bold';font-variant-ligatures:normal;font-variant-caps:normal;font-variant-numeric:normal;font-variant-east-asian:normal;fill:#000000;fill-opacity:1;stroke-width:0"
         x="-1126.757"
         y="1.9748408">g</tspan></text>
    <text
       xmlSpace="preserve"
       style="font-style:normal;font-variant:normal;font-weight:bold;font-stretch:normal;font-size:16.8535px;font-family:Tahoma;-inkscape-font-specification:'Tahoma, Bold';font-variant-ligatures:normal;font-variant-caps:normal;font-variant-numeric:normal;font-variant-east-asian:normal;letter-spacing:0.258838px;fill:#1a73e8;fill-opacity:1;stroke:#000000;stroke-width:0;stroke-linecap:butt;stroke-linejoin:round;stroke-dasharray:none;stroke-opacity:1;paint-order:stroke fill markers"
       x="-346.91257"
       y="-243.25473"
       id="text61264"
       transform="scale(1.002362,0.99764357)"><tspan
         id="tspan61262"
         style="font-style:normal;font-variant:normal;font-weight:bold;font-stretch:normal;font-size:16.8535px;font-family:Tahoma;-inkscape-font-specification:'Tahoma, Bold';font-variant-ligatures:normal;font-variant-caps:normal;font-variant-numeric:normal;font-variant-east-asian:normal;fill:#1a73e8;fill-opacity:1;stroke:#000000;stroke-width:0;stroke-linecap:butt;stroke-linejoin:round;stroke-dasharray:none;stroke-opacity:1;paint-order:stroke fill markers"
         x="-346.91257"
         y="-243.25473">Freefall</tspan></text>
    <g
       id="g153809">
      <path
         d="m -627.09423,-110.95177 -0.006,2.7083 c -2.26259,-0.12701 -4.40265,-0.19052 -6.23738,-0.19052 0.0943,1.35745 0.14141,2.86177 0.14141,4.51296 1.39961,0 2.98778,-0.0397 4.76449,-0.11907 v 2.46486 c -1.79847,-0.0714 -3.38663,-0.10716 -4.76449,-0.10716 0,2.246553 0.0326,4.358157 0.0979,6.334812 h -3.00228 c 0.0943,-2.397388 0.14141,-5.100402 0.14141,-8.109042 0,-2.88957 -0.0471,-5.35443 -0.14141,-7.39459 z"
         id="path152048"
         style="font-weight:bold;font-size:22.2778px;font-family:Candara;-inkscape-font-specification:'Candara, Bold';letter-spacing:0.264583px;fill:#1a73e8;stroke:#000000;stroke-width:0;stroke-linecap:round;stroke-linejoin:round;paint-order:stroke fill markers" />
      <path
         d="m -618.61304,-105.68153 -0.63091,2.54541 q -0.80496,-0.32633 -1.63168,-0.32633 -1.59904,0 -2.1103,1.43587 0,4.340259 0.0653,6.678992 h -2.8935 q 0.18492,-3.274227 0.18492,-5.351892 0,-2.58892 -0.54389,-4.9059 l 2.77385,-0.30458 q 0.18492,1.19656 0.18492,1.40324 h 0.17404 q 1.00076,-1.53378 2.66507,-1.53378 0.78321,0 1.76221,0.35897 z"
         id="path152050"
         style="font-weight:bold;font-size:22.2778px;font-family:Candara;-inkscape-font-specification:'Candara, Bold';letter-spacing:0.264583px;fill:#1a73e8;stroke:#000000;stroke-width:0;stroke-linecap:round;stroke-linejoin:round;paint-order:stroke fill markers" />
      <path
         d="m -607.49238,-101.6241 q 0,0.55477 -0.0653,1.44676 l -7.00532,0.11965 q 0.15229,1.229196 1.05515,2.045034 0.90286,0.815837 2.37137,0.815837 1.63167,0 3.47003,-0.489502 l -0.21756,2.110299 q -1.50114,0.543892 -3.72022,0.543892 -2.80648,0 -4.30762,-1.577286 -1.49026,-1.577286 -1.49026,-3.796364 0,-2.31698 1.41411,-4.01392 1.425,-1.70782 3.94866,-1.70782 2.3061,0 3.42651,1.25095 1.12042,1.25095 1.12042,3.25247 z m -2.54541,-0.0979 q 0,-2.5019 -2.13206,-2.5019 -2.03415,0 -2.41487,2.58893 z"
         id="path152052"
         style="font-weight:bold;font-size:22.2778px;font-family:Candara;-inkscape-font-specification:'Candara, Bold';letter-spacing:0.264583px;fill:#1a73e8;stroke:#000000;stroke-width:0;stroke-linecap:round;stroke-linejoin:round;paint-order:stroke fill markers" />
      <path
         d="m -595.81695,-101.6241 q 0,0.55477 -0.0653,1.44676 l -7.00532,0.11965 q 0.15229,1.229196 1.05515,2.045034 0.90286,0.815837 2.37137,0.815837 1.63167,0 3.47002,-0.489502 l -0.21755,2.110299 q -1.50114,0.543892 -3.72022,0.543892 -2.80648,0 -4.30762,-1.577286 -1.49026,-1.577286 -1.49026,-3.796364 0,-2.31698 1.41411,-4.01392 1.425,-1.70782 3.94866,-1.70782 2.3061,0 3.42651,1.25095 1.12042,1.25095 1.12042,3.25247 z m -2.54541,-0.0979 q 0,-2.5019 -2.13206,-2.5019 -2.03415,0 -2.41488,2.58893 z"
         id="path152054"
         style="font-weight:bold;font-size:22.2778px;font-family:Candara;-inkscape-font-specification:'Candara, Bold';letter-spacing:0.264583px;fill:#1a73e8;stroke:#000000;stroke-width:0;stroke-linecap:round;stroke-linejoin:round;paint-order:stroke fill markers" />
      <path
         d="m -586.78483,-110.78323 -0.3916,1.93625 q -0.62004,-0.15229 -1.27271,-0.15229 -0.78321,0 -1.07691,0.71794 -0.2937,0.71794 -0.2937,2.78473 0.96813,0 2.66507,-0.087 l -0.087,2.16469 q -1.69694,-0.0653 -2.57805,-0.0653 0,4.100947 0.16317,8.136622 h -2.87175 q 0.16317,-3.981286 0.16317,-8.136622 -0.64179,0 -1.90362,0.0653 l 0.087,-2.15381 q 1.15305,0.0761 1.8166,0.0761 0,-5.47155 3.67671,-5.47155 1.09866,0 1.90362,0.18492 z m -4.24236,5.1017 z"
         id="path152056"
         style="font-weight:bold;font-size:22.2778px;font-family:Candara;-inkscape-font-specification:'Candara, Bold';letter-spacing:0.264583px;fill:#1a73e8;stroke:#000000;stroke-width:0;stroke-linecap:round;stroke-linejoin:round;paint-order:stroke fill markers" />
      <path
         d="m -576.41475,-95.358465 -2.56716,0.08702 q -0.17405,-0.456869 -0.17405,-0.826715 h -0.14141 q -1.19656,1.022516 -3.23072,1.022516 -1.35973,0 -2.26259,-0.75057 -0.89198,-0.761448 -0.89198,-2.012399 0,-1.653431 1.39236,-2.708577 1.40324,-1.05515 4.90591,-1.12042 0.0217,-0.1958 0.0217,-0.36984 0,-1.17481 -0.56565,-1.54466 -0.56564,-0.38072 -2.07766,-0.38072 -1.64255,0 -3.20896,0.43511 l 0.23931,-2.00152 q 1.47939,-0.51126 4.17709,-0.51126 1.96888,0 3.03491,0.82672 1.07691,0.82671 1.07691,2.8935 0,0.45687 -0.0435,1.66431 -0.0326,1.207438 -0.0326,1.609918 0,2.251711 0.34809,3.687585 z m -2.90438,-2.262589 q -0.0653,-1.468508 -0.0653,-2.534536 -3.70935,0 -3.70935,1.881866 0,1.294462 1.63168,1.294462 1.28358,0 2.14293,-0.641792 z"
         id="path152058"
         style="font-weight:bold;font-size:22.2778px;font-family:Candara;-inkscape-font-specification:'Candara, Bold';letter-spacing:0.264583px;fill:#1a73e8;stroke:#000000;stroke-width:0;stroke-linecap:round;stroke-linejoin:round;paint-order:stroke fill markers" />
      <path
         d="m -570.80915,-95.347588 h -2.96964 q 0.16316,-3.731096 0.16316,-8.082232 0,-4.24235 -0.33721,-7.212 l 3.14369,-0.17404 q -0.16316,3.07842 -0.16316,7.38604 0,4.372892 0.16316,8.082232 z"
         id="path152060"
         style="font-weight:bold;font-size:22.2778px;font-family:Candara;-inkscape-font-specification:'Candara, Bold';letter-spacing:0.264583px;fill:#1a73e8;stroke:#000000;stroke-width:0;stroke-linecap:round;stroke-linejoin:round;paint-order:stroke fill markers" />
      <path
         d="m -564.80107,-95.347588 h -2.96965 q 0.16317,-3.731096 0.16317,-8.082232 0,-4.24235 -0.33721,-7.212 l 3.14369,-0.17404 q -0.16317,3.07842 -0.16317,7.38604 0,4.372892 0.16317,8.082232 z"
         id="path152062"
         style="font-weight:bold;font-size:22.2778px;font-family:Candara;-inkscape-font-specification:'Candara, Bold';letter-spacing:0.264583px;fill:#1a73e8;stroke:#000000;stroke-width:0;stroke-linecap:round;stroke-linejoin:round;paint-order:stroke fill markers" />
      <text
         xml:space="preserve"
         style="font-style:normal;font-variant:normal;font-weight:normal;font-stretch:normal;font-size:4.6486px;font-family:Tahoma;-inkscape-font-specification:'Tahoma, Normal';font-variant-ligatures:normal;font-variant-caps:normal;font-variant-numeric:normal;font-variant-east-asian:normal;opacity:1;fill:#1a73e8;fill-opacity:1;stroke:#000000;stroke-width:0;stroke-linecap:round;stroke-linejoin:round;stroke-dasharray:none;stroke-opacity:1;paint-order:stroke fill markers"
         x="-559.68494"
         y="-112.11906"
         id="text152300"
         transform="scale(1.0083296,0.99173921)"><tspan
           id="tspan152298"
           style="font-style:normal;font-variant:normal;font-weight:normal;font-stretch:normal;font-size:4.6486px;font-family:Tahoma;-inkscape-font-specification:'Tahoma, Normal';font-variant-ligatures:normal;font-variant-caps:normal;font-variant-numeric:normal;font-variant-east-asian:normal;fill:#1a73e8;fill-opacity:1;stroke-width:0"
           x="-559.68494"
           y="-112.11906">TM</tspan></text>
    </g>
    <path
       id="path152302"
       style="opacity:1;fill:#1a73e8;fill-opacity:1;stroke:#000000;stroke-width:0;stroke-linecap:round;stroke-linejoin:round;stroke-dasharray:none;stroke-opacity:1;paint-order:stroke fill markers"
       d="m -538.22512,-189.83497 a 4.2029288,4.2029288 0 0 0 -4.20303,4.20303 4.2029288,4.2029288 0 0 0 4.20303,4.20303 4.2029288,4.2029288 0 0 0 4.20303,-4.20303 4.2029288,4.2029288 0 0 0 -4.20303,-4.20303 z m 0,0.39456 a 3.8088609,3.8088609 0 0 1 3.80848,3.80847 3.8088609,3.8088609 0 0 1 -3.80848,3.80847 3.8088609,3.8088609 0 0 1 -3.80925,-3.80847 3.8088609,3.8088609 0 0 1 3.80925,-3.80847 z" />
  </g>
</svg>
