<svg data-name="Layer 1" xmlns="http://www.w3.org/2000/svg" width="704.72644" height="560.95591" viewBox="0 0 704.72644 560.95591" xmlns:xlink="http://www.w3.org/1999/xlink">

<polygon points="270.438 559.992 73.438 559.992 73.658 537.104 73.678 535.114 75.438 355.992 269.438 355.992 269.688 407.738 269.698 409.728 270.438 559.992" fill="#e6e6e6"/>

<rect x="62.93408" y="335.38378" width="215.49825" height="23.7682" fill="#e6e6e6"/>

<path d="M452.46268,476.27128l-.72975-2.56026h.164a1.70683,1.70683,0,0,0,0-3.41365,50.78067,50.78067,0,0,0-23.46887,0,1.70586,1.70586,0,0,0-.02027,3.41161l-.694,2.5623c-5.38483,7.48643-2.75049,19.92225,0,32.42971h24.74895C455.574,495.06838,457.92981,482.12117,452.46268,476.27128Z" transform="translate(-247.63678 -169.52205)" fill="#e6e6e6"/><circle cx="192.52567" cy="319.97715" r="6.82731" fill="#fff"/>

<path d="M471.13413,439.7402l-.72975-2.56027h.16395a1.70682,1.70682,0,0,0,0-3.41364,50.7804,50.7804,0,0,0-23.46887,0,1.70586,1.70586,0,0,0-.02027,3.41161l-.694,2.5623c-5.38483,7.48642-2.75048,19.92224,0,32.42971h24.749C474.24542,458.5373,476.60125,445.59009,471.13413,439.7402Z" transform="translate(-247.63678 -169.52205)" fill="#e6e6e6"/>

<circle cx="211.19711" cy="283.44606" r="6.82731" fill="#fff"/>

<path d="M435.13413,439.7402l-.72975-2.56027h.16395a1.70682,1.70682,0,0,0,0-3.41364,50.7804,50.7804,0,0,0-23.46887,0,1.70586,1.70586,0,0,0-.02027,3.41161l-.694,2.5623c-5.38483,7.48642-2.75048,19.92224,0,32.42971h24.749C438.24542,458.5373,440.60125,445.59009,435.13413,439.7402Z" transform="translate(-247.63678 -169.52205)" fill="#e6e6e6"/><circle cx="175.19711" cy="283.44606" r="6.82731" fill="#fff"/>

<path d="M419.13413,404.7402l-.72975-2.56027h.16395a1.70682,1.70682,0,0,0,0-3.41364,50.7804,50.7804,0,0,0-23.46887,0,1.70586,1.70586,0,0,0-.02027,3.41161l-.694,2.5623c-5.38483,7.48642-2.75048,19.92224,0,32.42971h24.749C422.24542,423.5373,424.60125,410.59009,419.13413,404.7402Z" transform="translate(-247.63678 -169.52205)" fill="#e6e6e6"/>

<circle cx="159.19711" cy="248.44606" r="6.82731" fill="#fff"/>

<path d="M455.13413,404.7402l-.72975-2.56027h.16395a1.70682,1.70682,0,0,0,0-3.41364,50.7804,50.7804,0,0,0-23.46887,0,1.70586,1.70586,0,0,0-.02027,3.41161l-.694,2.5623c-5.38483,7.48642-2.75048,19.92224,0,32.42971h24.749C458.24542,423.5373,460.60125,410.59009,455.13413,404.7402Z" transform="translate(-247.63678 -169.52205)" fill="#e6e6e6"/>

<circle cx="195.19711" cy="248.44606" r="6.82731" fill="#fff"/>

<path d="M398.13413,439.7402l-.72975-2.56027h.16395a1.70682,1.70682,0,0,0,0-3.41364,50.7804,50.7804,0,0,0-23.46887,0,1.70586,1.70586,0,0,0-.02027,3.41161l-.694,2.5623c-5.38483,7.48642-2.75048,19.92224,0,32.42971h24.749C401.24542,458.5373,403.60125,445.59009,398.13413,439.7402Z" transform="translate(-247.63678 -169.52205)" fill="#e6e6e6"/>

<circle cx="138.19711" cy="283.44606" r="6.82731" fill="#fff"/>


<path d="M378.58871,476.27128,377.859,473.711h.164a1.70683,1.70683,0,0,0,0-3.41365,50.78067,50.78067,0,0,0-23.46887,0,1.70586,1.70586,0,0,0-.02027,3.41161l-.694,2.5623c-5.38482,7.48643-2.75048,19.92225,0,32.42971h24.749C381.7,495.06838,384.05584,482.12117,378.58871,476.27128Z" transform="translate(-247.63678 -169.52205)" fill="#e6e6e6"/>

<circle cx="118.6517" cy="319.97715" r="6.82731" fill="#fff"/>

<path d="M415.58871,476.27128,414.859,473.711h.164a1.70683,1.70683,0,0,0,0-3.41365,50.78067,50.78067,0,0,0-23.46887,0,1.70586,1.70586,0,0,0-.02027,3.41161l-.694,2.5623c-5.38482,7.48643-2.75048,19.92225,0,32.42971h24.749C418.7,495.06838,421.05584,482.12117,415.58871,476.27128Z" transform="translate(-247.63678 -169.52205)" fill="#e6e6e6"/>

<circle cx="155.6517" cy="319.97715" r="6.82731" fill="#fff"/>

<path d="M491.42917,476.27128l-.72974-2.56026h.16395a1.70683,1.70683,0,0,0,0-3.41365,50.78067,50.78067,0,0,0-23.46887,0,1.70586,1.70586,0,0,0-.02027,3.41161l-.694,2.5623c-5.38483,7.48643-2.75049,19.92225,0,32.42971h24.74895C494.54047,495.06838,496.8963,482.12117,491.42917,476.27128Z" transform="translate(-247.63678 -169.52205)" fill="#e6e6e6"/>

<path d="M462.77642,348.18741,353.14828,383.56366a3.87593,3.87593,0,0,1-4.87329-2.49545l-13.86646-42.971a3.87594,3.87594,0,0,1,2.49545-4.87329l109.62814-35.37625a3.87594,3.87594,0,0,1,4.87329,2.49545l13.86646,42.971A3.87594,3.87594,0,0,1,462.77642,348.18741Z" transform="translate(-247.63678 -169.52205)" fill="#f2f2f2"/>

<path d="M436.45041,354.08811l-66.65863,21.51028a19.70932,19.70932,0,0,1-24.78164-12.68985l-2.6353-8.16657a19.70945,19.70945,0,0,1,12.68981-24.78178l74.8252-24.14558a19.70945,19.70945,0,0,1,24.78168,12.69A28.30037,28.30037,0,0,1,436.45041,354.08811Z" transform="translate(-247.63678 -169.52205)" fill="#fff"/>

<path d="M408.49755,326.29987,364.4354,340.51843a.99845.99845,0,1,1-.61324-1.90041l44.06215-14.21855a.99845.99845,0,0,1,.61324,1.9004Z" transform="translate(-247.63678 -169.52205)" fill="#e6e6e6"/>

<path d="M434.07406,329.24023l-66.36718,21.41623a.99845.99845,0,1,1-.61325-1.9004l66.36719-21.41624a.99845.99845,0,0,1,.61324,1.90041Z" transform="translate(-247.63678 -169.52205)" fill="#e6e6e6"/>

<path d="M437.34554,339.37826,370.97835,360.7945a.99845.99845,0,1,1-.61324-1.90041l66.36718-21.41623a.99845.99845,0,0,1,.61325,1.9004Z" transform="translate(-247.63678 -169.52205)" fill="#e6e6e6"/>

<path d="M437.34554,339.37826,370.97835,360.7945a.99845.99845,0,1,1-.61324-1.90041l66.36718-21.41623a.99845.99845,0,0,1,.61325,1.9004Z" transform="translate(-247.63678 -169.52205)" fill="#e6e6e6"/>

<circle cx="195.15224" cy="134.86954" r="11.55118" fill="#6c63ff"/>

<path d="M442.38282,309.02525a.99833.99833,0,0,1-.79882-.39953l-2.44919-3.26565a.9986.9986,0,1,1,1.59779-1.19827l1.60235,2.1363,4.11542-6.173a.99864.99864,0,0,1,1.66184,1.10789l-4.89839,7.34759a.999.999,0,0,1-.80321.44439Z" transform="translate(-247.63678 -169.52205)" fill="#fff"/>

</svg>